<svg xmlns="http://www.w3.org/2000/svg" viewBox="0 0 300 300" fill="none">
  <defs>
    <linearGradient id="leafBg" x1="80" y1="260" x2="240" y2="40" gradientUnits="userSpaceOnUse">
      <stop offset="0%" stop-color="#2E7D32"/>
      <stop offset="50%" stop-color="#43A047"/>
      <stop offset="100%" stop-color="#66BB6A"/>
    </linearGradient>
    <linearGradient id="stemGrad" x1="90" y1="280" x2="130" y2="200" gradientUnits="userSpaceOnUse">
      <stop offset="0%" stop-color="#1a1a1a"/>
      <stop offset="100%" stop-color="#333"/>
    </linearGradient>
  </defs>

  <!-- Leaf stem -->
  <path d="M70 275 Q105 230 135 185" stroke="url(#stemGrad)" stroke-width="6" stroke-linecap="round" fill="none"/>

  <!-- Main olive leaf shape -->
  <path d="M135 185 Q100 120 150 50 Q250 30 260 100 Q270 180 200 230 Q160 250 135 185Z" fill="url(#leafBg)" opacity="0.92"/>

  <!-- Central vein (main circuit trace) -->
  <path d="M135 185 Q165 140 175 100 Q185 70 190 50" stroke="#1a1a1a" stroke-width="3.5" stroke-linecap="round" fill="none"/>

  <!-- Circuit traces (side veins) -->
  <!-- Left veins -->
  <path d="M148 165 L118 150" stroke="#1a1a1a" stroke-width="2" stroke-linecap="round"/>
  <path d="M118 150 L118 135" stroke="#1a1a1a" stroke-width="1.5" stroke-linecap="round"/>
  <path d="M158 145 L128 125" stroke="#1a1a1a" stroke-width="2" stroke-linecap="round"/>
  <path d="M128 125 L115 118" stroke="#1a1a1a" stroke-width="1.5" stroke-linecap="round"/>
  <path d="M165 125 L140 105" stroke="#1a1a1a" stroke-width="2" stroke-linecap="round"/>
  <path d="M140 105 L130 95" stroke="#1a1a1a" stroke-width="1.5" stroke-linecap="round"/>
  <path d="M172 108 L155 85" stroke="#1a1a1a" stroke-width="1.8" stroke-linecap="round"/>
  <path d="M178 88 L162 68" stroke="#1a1a1a" stroke-width="1.5" stroke-linecap="round"/>

  <!-- Right veins -->
  <path d="M155 160 L195 170" stroke="#1a1a1a" stroke-width="2" stroke-linecap="round"/>
  <path d="M195 170 L210 168" stroke="#1a1a1a" stroke-width="1.5" stroke-linecap="round"/>
  <path d="M162 140 L210 148" stroke="#1a1a1a" stroke-width="2" stroke-linecap="round"/>
  <path d="M210 148 L228 142" stroke="#1a1a1a" stroke-width="1.5" stroke-linecap="round"/>
  <path d="M170 118 L220 118" stroke="#1a1a1a" stroke-width="2" stroke-linecap="round"/>
  <path d="M220 118 L240 112" stroke="#1a1a1a" stroke-width="1.5" stroke-linecap="round"/>
  <path d="M178 98 L225 92" stroke="#1a1a1a" stroke-width="1.8" stroke-linecap="round"/>
  <path d="M225 92 L245 85" stroke="#1a1a1a" stroke-width="1.5" stroke-linecap="round"/>
  <path d="M185 78 L225 68" stroke="#1a1a1a" stroke-width="1.5" stroke-linecap="round"/>

  <!-- 90-degree circuit bends -->
  <path d="M118 150 L105 150 L105 140" stroke="#1a1a1a" stroke-width="1.2" stroke-linecap="round" fill="none"/>
  <path d="M210 148 L210 160 L220 160" stroke="#1a1a1a" stroke-width="1.2" stroke-linecap="round" fill="none"/>
  <path d="M220 118 L220 108 L232 108" stroke="#1a1a1a" stroke-width="1.2" stroke-linecap="round" fill="none"/>

  <!-- Circuit nodes (connection points) -->
  <!-- Main vein nodes -->
  <circle cx="148" cy="165" r="4" fill="#E0E0E0" stroke="#1a1a1a" stroke-width="1.5"/>
  <circle cx="158" cy="145" r="4" fill="#E0E0E0" stroke="#1a1a1a" stroke-width="1.5"/>
  <circle cx="165" cy="125" r="4" fill="#E0E0E0" stroke="#1a1a1a" stroke-width="1.5"/>
  <circle cx="172" cy="108" r="3.5" fill="#E0E0E0" stroke="#1a1a1a" stroke-width="1.2"/>
  <circle cx="178" cy="88" r="3.5" fill="#E0E0E0" stroke="#1a1a1a" stroke-width="1.2"/>
  <circle cx="185" cy="70" r="3" fill="#E0E0E0" stroke="#1a1a1a" stroke-width="1.2"/>

  <!-- Left endpoint nodes -->
  <circle cx="118" cy="150" r="3" fill="#fff" stroke="#1a1a1a" stroke-width="1.2"/>
  <circle cx="118" cy="135" r="2" fill="#1a1a1a"/>
  <circle cx="128" cy="125" r="3" fill="#fff" stroke="#1a1a1a" stroke-width="1.2"/>
  <circle cx="115" cy="118" r="2" fill="#1a1a1a"/>
  <circle cx="140" cy="105" r="3" fill="#fff" stroke="#1a1a1a" stroke-width="1.2"/>
  <circle cx="130" cy="95" r="2" fill="#1a1a1a"/>
  <circle cx="155" cy="85" r="2.5" fill="#fff" stroke="#1a1a1a" stroke-width="1"/>
  <circle cx="162" cy="68" r="2" fill="#1a1a1a"/>
  <circle cx="105" cy="140" r="2" fill="#1a1a1a"/>

  <!-- Right endpoint nodes -->
  <circle cx="195" cy="170" r="3" fill="#fff" stroke="#1a1a1a" stroke-width="1.2"/>
  <circle cx="210" cy="168" r="2" fill="#1a1a1a"/>
  <circle cx="210" cy="148" r="3" fill="#fff" stroke="#1a1a1a" stroke-width="1.2"/>
  <circle cx="228" cy="142" r="2" fill="#1a1a1a"/>
  <circle cx="220" cy="118" r="3" fill="#fff" stroke="#1a1a1a" stroke-width="1.2"/>
  <circle cx="240" cy="112" r="2" fill="#1a1a1a"/>
  <circle cx="225" cy="92" r="2.5" fill="#fff" stroke="#1a1a1a" stroke-width="1"/>
  <circle cx="245" cy="85" r="2" fill="#1a1a1a"/>
  <circle cx="225" cy="68" r="2" fill="#1a1a1a"/>
  <circle cx="232" cy="108" r="2" fill="#1a1a1a"/>
  <circle cx="220" cy="160" r="2" fill="#1a1a1a"/>

  <!-- Base hub node -->
  <circle cx="135" cy="185" r="6" fill="#1a1a1a" stroke="#4CAF50" stroke-width="2"/>
  <circle cx="135" cy="185" r="3" fill="#4CAF50"/>

  <!-- Top tip node -->
  <circle cx="190" cy="50" r="4" fill="#1a1a1a" stroke="#66BB6A" stroke-width="1.5"/>
  <circle cx="190" cy="50" r="2" fill="#66BB6A"/>
</svg>
